<svg enable-background="new 0 0 512 512" viewBox="0 0 512 512" xmlns="http://www.w3.org/2000/svg"><g id="_x30_9_x2C__Brainstorm_x2C__Brain_x2C__Bulb_x2C__Idea_x2C__Creativity_x2C__think"><g><path d="m413.501 166.003c0 41.25-15.86 78.8-41.82 106.88-16.32 17.65-25.68 40.62-25.68 64.66v.96l-90.001 18.74-89.999-18.74v-.97c0-23.95-9.22-46.91-25.5-64.47-26.49-28.55-42.51-66.94-41.99-109.07 1.09-87.41 72.26-156.66 159.67-155.48 85.98 1.17 155.32 71.23 155.32 157.49z" fill="#fff275"/><path d="m318.311 91.873c18.651 4.983 27.765 25.935 18.84 42.94-2.76 5.25-3.02 11.54-.19 16.75 9.318 17.134-.007 38.661-19.15 43.42-5.882 1.446-10.335 6.223-12.03 12.03-8.17 27.677-49.78 23.856-49.78-6.19 0-6.686 0-108.11 0-114.93.301-28.806 41.782-34.331 49.84-5.95 1.697 5.992 6.593 10.373 12.47 11.93z" fill="#cbd2f1"/><path d="m206.221 79.853c8.223-27.858 49.78-23.826 49.78 6.15v114.97c-.302 28.943-41.809 34.268-49.84 5.94-1.687-5.966-6.575-10.356-12.47-11.93-18.611-4.949-27.782-25.893-18.84-42.93 2.76-5.25 3.02-11.54.19-16.75-9.338-17.171.045-38.671 19.15-43.42 5.878-1.456 10.33-6.202 12.03-12.03z" fill="#d7def3"/><path d="m196.001 458.503 58-14 62 14c0 12.42-5.04 23.68-13.18 31.82s-19.4 13.18-31.82 13.18h-30c-24.85 0-45-20.15-45-45z" fill="#4e5358"/><path d="m376.001 368.503c0 16.57-13.43 30-30 30l-89.99 8-90.01-8c-16.56 0-30-13.44-30-30 0-16.57 13.43-30 30-30h180c16.56 0 30 13.44 30 30z" fill="#4e5358"/><path d="m230.619 233.349c-3.938 0-7.871-.727-11.604-2.204-.537-.212-1.068-.438-1.599-.68-9.024-4.109-15.758-11.946-18.469-21.499-.927-3.264-3.612-5.78-7.185-6.73-10.384-2.767-19.093-9.859-23.894-19.463-5.379-10.757-5.25-23.546.344-34.209 1.69-3.222 1.778-6.841.236-9.681-11.502-21.184-.319-48.254 23.937-54.277 3.075-.764 5.622-3.397 6.646-6.873 3.005-10.202 10.752-18.483 20.724-22.152 5.291-1.948 11.021-2.544 16.571-1.722 15.573 2.302 27.253 16.144 27.175 32.202v114.798c-.061 10.705-5.489 20.715-14.523 26.819-5.546 3.747-11.955 5.671-18.359 5.671zm.81-164.85c-2.202 0-4.407.391-6.493 1.158-5.623 2.069-9.82 6.558-11.516 12.314-2.522 8.562-9.196 15.15-17.418 17.192-8.324 2.067-14.662 8.543-16.543 16.901-1.196 5.315-.425 10.878 2.172 15.66 3.935 7.246 3.885 16.146-.135 23.808-3.359 6.402-3.438 14.078-.211 20.532 2.88 5.761 8.105 10.016 14.337 11.676 8.602 2.29 15.405 8.854 17.755 17.13 1.507 5.309 5.247 9.662 10.261 11.946.301.137.598.263.896.381 5.274 2.086 11.125 1.377 16.046-1.948 4.929-3.33 7.89-8.726 7.922-14.433v-114.773c0-.014 0-.028 0-.042.049-8.646-6.13-16.086-14.37-17.305-.896-.131-1.8-.197-2.703-.197z"/><path d="m280.563 233.365c-1.634 0-3.267-.119-4.885-.358-15.576-2.304-27.255-16.146-27.177-32.202v-114.799c.061-10.706 5.49-20.716 14.523-26.82 8.955-6.052 20.157-7.348 29.963-3.467.532.21 1.06.435 1.585.674 9.038 4.116 15.771 11.953 18.482 21.506.927 3.263 3.612 5.779 7.186 6.731 10.382 2.764 19.091 9.856 23.893 19.46 5.379 10.759 5.251 23.547-.344 34.21-1.69 3.222-1.778 6.842-.236 9.682 4.331 7.976 5.618 17.248 3.625 26.11-3.135 13.93-13.695 24.723-27.562 28.167-3.075.764-5.622 3.396-6.646 6.872-3.005 10.202-10.752 18.483-20.724 22.152-3.746 1.381-7.715 2.082-11.683 2.082zm.763-164.876c-3.419 0-6.841 1.057-9.903 3.126-4.929 3.33-7.89 8.726-7.922 14.434v114.773.042c-.049 8.646 6.13 16.085 14.371 17.305 3.069.453 6.251.121 9.194-.961 5.623-2.069 9.82-6.558 11.516-12.314 2.522-8.562 9.197-15.15 17.419-17.192 8.323-2.067 14.662-8.543 16.542-16.9 1.196-5.316.425-10.878-2.172-15.66-3.935-7.246-3.885-16.146.135-23.809 3.359-6.402 3.438-14.078.211-20.532-2.88-5.761-8.105-10.016-14.337-11.674-8.733-2.327-15.37-8.73-17.755-17.131-1.507-5.309-5.247-9.663-10.261-11.947-.292-.132-.593-.261-.896-.381-1.991-.79-4.067-1.179-6.142-1.179z"/><path d="m292.807 105.987c-3.037 0-6.104-.462-9.097-1.422-3.944-1.266-6.116-5.488-4.851-9.433 1.266-3.945 5.489-6.115 9.433-4.851 6.349 2.037 13.366-.405 17.061-5.941 2.3-3.445 6.956-4.373 10.401-2.075 3.445 2.3 4.375 6.956 2.075 10.401-5.65 8.467-15.178 13.321-25.022 13.321z"/><path d="m311.428 205.764c-2.392 0-4.742-1.142-6.195-3.264-3.706-5.413-10.67-7.79-16.939-5.775-3.939 1.264-8.168-.905-9.434-4.85-1.266-3.943.905-8.167 4.85-9.434 12.535-4.022 26.477.74 33.9 11.584 2.34 3.418 1.466 8.086-1.951 10.426-1.297.887-2.772 1.313-4.231 1.313z"/><path d="m219.148 106.62c-9.97 0-19.566-4.983-25.192-13.669-2.252-3.477-1.259-8.12 2.218-10.372 3.475-2.253 8.12-1.26 10.372 2.218 3.669 5.664 10.729 8.173 17.159 6.107 3.948-1.271 8.169.901 9.436 4.844 1.269 3.943-.9 8.168-4.844 9.436-3.015.969-6.101 1.436-9.149 1.436z"/><path d="m200.464 205.905c-1.445 0-2.905-.417-4.192-1.287-3.432-2.318-4.334-6.981-2.015-10.413 7.417-10.978 21.414-15.815 34.036-11.762 3.944 1.266 6.115 5.489 4.849 9.433-1.265 3.945-5.492 6.117-9.433 4.849-6.318-2.025-13.315.391-17.024 5.879-1.45 2.144-3.814 3.301-6.221 3.301z"/><path d="m346.001 398.503c8.28 0 15.78 3.36 21.21 8.79s8.79 12.93 8.79 21.21c0 16.57-13.43 30-30 30h-30-120-30c-16.56 0-30-13.44-30-30 0-16.57 13.43-30 30-30z" fill="#353a3f"/><g><path d="m346.001 346.003h-90c-4.143 0-7.5-3.357-7.5-7.5s3.357-7.5 7.5-7.5h82.713c1.52-23.319 11.136-45.556 27.46-63.212 25.683-27.78 39.827-63.93 39.827-101.788 0-81.596-66.357-148.881-147.922-149.991-84.201-1.054-151.04 65.59-152.069 148.075-.477 38.678 13.725 75.568 39.989 103.874 16.229 17.507 25.786 39.682 27.292 63.042h22.71c4.143 0 7.5 3.357 7.5 7.5s-3.357 7.5-7.5 7.5h-30c-4.143 0-7.5-3.357-7.5-7.5v-.97c0-21.94-8.346-43.025-23.5-59.372-28.891-31.137-44.515-71.717-43.989-114.261 1.144-91.705 75.837-164.2 167.271-162.887 90.181 1.226 162.719 74.604 162.719 164.989 0 41.645-15.56 81.41-43.813 111.972-15.274 16.521-23.687 37.676-23.687 59.568v.96c-.001 4.144-3.358 7.501-7.501 7.501z"/></g><g><path d="m346.001 406.003h-180c-20.718 0-37.5-16.78-37.5-37.5 0-20.678 16.822-37.5 37.5-37.5h30c4.143 0 7.5 3.357 7.5 7.5s-3.357 7.5-7.5 7.5h-30c-12.406 0-22.5 10.094-22.5 22.5 0 12.426 10.072 22.5 22.5 22.5h180c12.406 0 22.5-10.094 22.5-22.5 0-12.426-10.072-22.5-22.5-22.5h-90c-4.143 0-7.5-3.357-7.5-7.5s3.357-7.5 7.5-7.5h90c20.719 0 37.5 16.78 37.5 37.5 0 20.678-16.822 37.5-37.5 37.5z"/></g><g><path d="m346.001 466.003h-56.4c-4.143 0-7.5-3.357-7.5-7.5s3.357-7.5 7.5-7.5h56.4c20.103 0 29.959-24.356 15.906-38.406-4.251-4.252-9.9-6.594-15.906-6.594h-180c-12.406 0-22.5 10.094-22.5 22.5 0 12.426 10.072 22.5 22.5 22.5h63.6c4.143 0 7.5 3.357 7.5 7.5s-3.357 7.5-7.5 7.5h-63.6c-20.718 0-37.5-16.78-37.5-37.5 0-20.678 16.822-37.5 37.5-37.5h180c10.013 0 19.429 3.901 26.514 10.986s10.986 16.501 10.986 26.514c0 20.678-16.822 37.5-37.5 37.5z"/></g><g><path d="m271.001 511.003h-30c-28.948 0-52.5-23.552-52.5-52.5 0-4.143 3.357-7.5 7.5-7.5h33.6c4.143 0 7.5 3.357 7.5 7.5s-3.357 7.5-7.5 7.5h-25.347c3.485 17.096 18.638 30 36.747 30h30c18.289 0 33.327-13.027 36.755-30h-18.155c-4.143 0-7.5-3.357-7.5-7.5s3.357-7.5 7.5-7.5h26.4c4.143 0 7.5 3.357 7.5 7.5 0 29.018-23.482 52.5-52.5 52.5z"/></g><g><circle cx="226.001" cy="338.504" r="7.5"/></g><g><circle cx="259.601" cy="458.504" r="7.5"/></g></g></g><g id="Layer_1"/></svg>