<svg enable-background="new 0 0 512 512" viewBox="0 0 512 512" xmlns="http://www.w3.org/2000/svg"><g id="_x30_9_x2C__Brainstorm_x2C__Brain_x2C__Bulb_x2C__Idea_x2C__Creativity_x2C__think"><g><path d="m413.501 166.002c0 41.25-15.86 78.8-41.82 106.88-16.32 17.65-25.68 40.62-25.68 64.66v.96l-90.001 18.74-89.999-18.74v-.97c0-23.95-9.22-46.91-25.5-64.47-26.49-28.55-42.51-66.94-41.99-109.07 1.09-87.41 72.26-156.66 159.67-155.48 85.98 1.17 155.32 71.23 155.32 157.49z" fill="#fff275"/><path d="m336.961 151.562c-2.83-5.21-2.57-11.5.19-16.75 8.925-17.005-.189-37.957-18.84-42.94-5.877-1.558-10.773-5.939-12.47-11.93-8.058-28.381-49.539-22.856-49.84 5.95v.11c0-29.976-41.557-34.008-49.78-6.15-1.7 5.828-6.152 10.574-12.03 12.03-19.105 4.749-28.488 26.249-19.15 43.42 2.83 5.21 2.57 11.5-.19 16.75-8.942 17.037.229 37.981 18.84 42.93 5.895 1.574 10.783 5.964 12.47 11.93 8.031 28.328 49.538 23.003 49.84-5.94 0-.041 0-.102 0-.15 0 30.046 41.61 33.867 49.78 6.19 1.695-5.807 6.148-10.584 12.03-12.03 19.143-4.758 28.468-26.285 19.15-43.42z" fill="#d7def3"/><path d="m196.001 458.502 58-14 62 14c0 12.42-5.04 23.68-13.18 31.82s-19.4 13.18-31.82 13.18h-30c-24.85 0-45-20.15-45-45z" fill="#4e5358"/><path d="m376.001 368.502c0 16.57-13.43 30-30 30l-89.99 8-90.01-8c-16.56 0-30-13.44-30-30 0-16.57 13.43-30 30-30h180c16.56 0 30 13.44 30 30z" fill="#4e5358"/><path d="m343.553 147.981c-1.542-2.84-1.454-6.46.236-9.682 5.595-10.663 5.723-23.451.344-34.21-4.802-9.604-13.511-16.696-23.893-19.46-3.573-.952-6.259-3.469-7.186-6.731-2.711-9.553-9.444-17.39-18.482-21.506-.525-.239-1.053-.464-1.585-.674-9.806-3.881-21.008-2.585-29.963 3.467-2.586 1.748-4.866 3.824-6.82 6.137-4.881-6.031-11.861-10.279-19.878-11.464-5.551-.822-11.28-.227-16.571 1.722-9.972 3.669-17.719 11.95-20.724 22.152-1.023 3.476-3.57 6.109-6.646 6.873-24.256 6.023-35.438 33.094-23.937 54.277 1.542 2.84 1.454 6.459-.236 9.681-5.594 10.663-5.723 23.452-.344 34.209 4.801 9.604 13.51 16.696 23.894 19.463 3.572.95 6.258 3.467 7.185 6.73 2.711 9.553 9.444 17.39 18.469 21.499.53.242 1.062.468 1.599.68 3.733 1.478 7.667 2.204 11.604 2.204 6.403 0 12.812-1.924 18.358-5.671 2.587-1.748 4.866-3.824 6.82-6.137 4.881 6.03 11.861 10.279 19.88 11.465 1.618.239 3.251.358 4.885.358 3.969 0 7.938-.701 11.685-2.081 9.972-3.669 17.719-11.95 20.724-22.152 1.023-3.476 3.57-6.108 6.646-6.872 13.866-3.444 24.427-14.237 27.562-28.167 1.992-8.862.705-18.134-3.626-26.11zm-95.052 52.835c-.032 5.707-2.993 11.103-7.922 14.433-4.921 3.325-10.771 4.034-16.046 1.948-.298-.118-.595-.244-.896-.381-5.014-2.284-8.754-6.638-10.261-11.946-.625-2.202-1.574-4.277-2.779-6.188 3.758-2.578 8.604-3.403 13.111-1.958 3.94 1.269 8.168-.903 9.433-4.849 1.267-3.943-.904-8.167-4.849-9.433-10.332-3.318-21.58-.672-29.391 6.416-1.059-.441-2.153-.818-3.28-1.118-6.231-1.66-11.457-5.915-14.337-11.676-3.227-6.454-3.148-14.13.211-20.532 4.02-7.662 4.069-16.562.135-23.808-2.597-4.782-3.368-10.345-2.172-15.66 1.881-8.358 8.219-14.834 16.543-16.901.846-.21 1.671-.48 2.481-.784 5.586 5.294 13.012 8.24 20.665 8.24 3.048 0 6.134-.467 9.148-1.437 3.943-1.268 6.112-5.492 4.844-9.436-1.267-3.942-5.487-6.115-9.436-4.844-4.646 1.492-9.615.586-13.402-2.162 1.333-2.06 2.398-4.331 3.117-6.77 1.695-5.757 5.893-10.245 11.516-12.314 2.086-.768 4.291-1.158 6.493-1.158.903 0 1.808.066 2.702.198 8.24 1.219 14.419 8.658 14.37 17.305v.005.037 114.761.012zm81.87-45.677c2.597 4.782 3.368 10.344 2.172 15.66-1.88 8.357-8.219 14.833-16.542 16.9-1.053.262-2.08.6-3.077 1.005-7.797-6.968-18.974-9.551-29.215-6.264-3.944 1.267-6.115 5.49-4.85 9.434 1.266 3.944 5.494 6.113 9.434 4.85 4.483-1.441 9.316-.626 13.064 1.93-1.174 1.917-2.118 4.008-2.775 6.238-1.695 5.757-5.893 10.245-11.516 12.314-2.943 1.082-6.125 1.414-9.194.961-8.241-1.22-14.42-8.658-14.371-17.305 0-.002 0-.003 0-.005v-.037-114.76-.013c.032-5.708 2.993-11.104 7.922-14.434 3.062-2.069 6.484-3.126 9.903-3.126 2.075 0 4.15.39 6.143 1.178.303.12.604.249.896.381 5.014 2.284 8.754 6.639 10.261 11.947.642 2.261 1.601 4.371 2.817 6.303-3.76 2.602-8.622 3.437-13.15 1.984-3.943-1.265-8.167.905-9.433 4.851-1.266 3.944.906 8.167 4.851 9.433 2.993.96 6.06 1.422 9.097 1.422 7.509 0 14.827-2.831 20.387-7.927 1.026.417 2.09.774 3.187 1.066 6.231 1.658 11.457 5.913 14.337 11.674 3.228 6.454 3.148 14.13-.211 20.532-4.022 7.662-4.071 16.562-.137 23.808z" fill="#cbd2f1"/><path d="m346.001 398.502c8.28 0 15.78 3.36 21.21 8.79s8.79 12.93 8.79 21.21c0 16.57-13.43 30-30 30h-30-120-30c-16.56 0-30-13.44-30-30 0-16.57 13.43-30 30-30z" fill="#353a3f"/></g></g><g id="Layer_1"/></svg>