<svg id="Icons" height="512" viewBox="0 0 60 60" width="512" xmlns="http://www.w3.org/2000/svg"><circle cx="30" cy="30" fill="#f74850" r="29"/><path d="m34.218 30 7.373 7.373a1.4 1.4 0 0 1 0 1.976l-2.242 2.242a1.4 1.4 0 0 1 -1.976 0l-7.373-7.373-7.373 7.373a1.4 1.4 0 0 1 -1.976 0l-2.242-2.242a1.4 1.4 0 0 1 0-1.976l7.373-7.373-7.373-7.373a1.4 1.4 0 0 1 0-1.976l2.242-2.242a1.4 1.4 0 0 1 1.976 0l7.373 7.373 7.373-7.373a1.4 1.4 0 0 1 1.976 0l2.242 2.242a1.4 1.4 0 0 1 0 1.976z" fill="#fff"/><g fill="#262626"><path d="m17.7 40.057 2.243 2.243a2.4 2.4 0 0 0 3.391 0l6.666-6.668 6.666 6.668a2.4 2.4 0 0 0 3.391 0l2.243-2.243a2.4 2.4 0 0 0 0-3.391l-6.668-6.666 6.668-6.666a2.4 2.4 0 0 0 0-3.391l-2.243-2.243a2.4 2.4 0 0 0 -3.391 0l-6.666 6.668-6.666-6.668a2.4 2.4 0 0 0 -3.391 0l-2.243 2.243a2.4 2.4 0 0 0 0 3.391l6.668 6.666-6.668 6.666a2.4 2.4 0 0 0 0 3.391zm1.414-1.977 7.373-7.373a1 1 0 0 0 0-1.414l-7.371-7.373a.4.4 0 0 1 0-.563l2.241-2.241a.4.4 0 0 1 .563 0l7.373 7.373a1 1 0 0 0 1.414 0l7.373-7.373a.4.4 0 0 1 .563 0l2.241 2.241a.4.4 0 0 1 0 .563l-7.373 7.373a1 1 0 0 0 0 1.414l7.373 7.373a.4.4 0 0 1 0 .563l-2.241 2.241a.4.4 0 0 1 -.563 0l-7.373-7.373a1 1 0 0 0 -1.414 0l-7.373 7.373a.4.4 0 0 1 -.563 0l-2.241-2.241a.4.4 0 0 1 0-.563z"/><path d="m30 0a29.784 29.784 0 0 0 -17.587 5.693 1 1 0 1 0 1.174 1.62 28.014 28.014 0 1 1 -2.9 2.411 1 1 0 1 0 -1.376-1.448 29.735 29.735 0 0 0 -9.311 21.724 30 30 0 1 0 30-30z"/></g></svg>