<?xml version="1.0" encoding="iso-8859-1"?>
<!-- Generator: Adobe Illustrator 19.0.0, SVG Export Plug-In . SVG Version: 6.00 Build 0)  -->
<svg version="1.1" id="Capa_1" xmlns="http://www.w3.org/2000/svg" xmlns:xlink="http://www.w3.org/1999/xlink" x="0px" y="0px"
	 viewBox="0 0 512 512" style="enable-background:new 0 0 512 512;" xml:space="preserve">
<path style="fill:#FFF9EB;" d="M488.82,434.736H23.179C10.377,434.736,0,424.358,0,411.557V113.32h511.998v298.237
	C511.998,424.358,501.621,434.736,488.82,434.736z"/>
<path style="fill:#D3CDBF;" d="M511.998,113.32h-30.905v290.511H0v7.726c0,12.801,10.377,23.179,23.179,23.179H488.82
	c12.801,0,23.179-10.378,23.179-23.179V113.32H511.998z"/>
<path style="fill:#6C7A88;" d="M488.821,77.264H23.18c-12.801,0-23.179,10.377-23.179,23.179v25.239H512v-25.239
	C512,87.642,501.623,77.264,488.821,77.264z"/>
<path style="fill:#596775;" d="M511.998,100.353c-0.047-12.148-9.819-23.089-23.177-23.089l0,0l0,0h-7.728v25.239H0.002v23.179
	h481.09l0,0h30.905l0,0H512C512,123.887,512.001,101.127,511.998,100.353z"/>
<path style="fill:#60F375;" d="M28.311,93.912c-4.44,0.951-6.865,5.128-6.057,9.086c1.243,6.652,10.085,8.521,14,2.781
	C40.091,99.953,34.942,92.552,28.311,93.912z"/>
<path style="fill:#FFCF5D;" d="M59.246,93.912c-4.44,0.951-6.865,5.128-6.057,9.086c1.243,6.652,10.085,8.521,14,2.781
	C71.025,99.953,65.876,92.552,59.246,93.912z"/>
<path style="fill:#FF5368;" d="M90.181,93.912c-4.44,0.951-6.865,5.128-6.057,9.086c1.244,6.652,10.085,8.521,14,2.781
	C101.959,99.953,96.81,92.552,90.181,93.912z"/>
<g>
	<path style="fill:#596775;" d="M256.219,208.822c-83.786,0-83.359,142.777,0,142.777
		C340.005,351.599,339.424,208.822,256.219,208.822z M278.859,310.333c-5.523,7.068-12.718,10.362-22.64,10.362
		c-30.883,0-31.774-36.463-31.774-40.62c0-11.647,3.315-22.568,9.094-29.963c5.537-7.085,12.743-10.384,22.679-10.384
		c30.826,0,31.716,36.508,31.716,40.669C287.936,292.039,284.628,302.95,278.859,310.333z"/>
	<path style="fill:#596775;" d="M163.068,305.887h-16.892c0-19.956,0.012-1.369-0.079-108.111
		c-0.007-8.53-6.924-15.439-15.453-15.439c-8.534,0-15.453,6.918-15.453,15.453c0,15.6,0,92.542,0,108.099
		c-10.292,0-42.672,0-54.064,0l25.435-74.286c2.704-7.893-1.407-16.816-9.614-19.626c-8.025-2.743-16.937,1.496-19.721,9.641
		l-32.403,94.805c-3.424,10.017,4.033,20.451,14.621,20.451h75.743l-0.003,25.743c0,4.099,1.65,8.029,4.547,10.927
		c9.789,9.789,26.442,2.66,26.442-10.967v-25.784h16.892c8.534,0,15.453-6.919,15.453-15.453S171.602,305.887,163.068,305.887z"/>
	<path style="fill:#596775;" d="M473.172,305.887h-16.892c0-19.956,0.012-1.369-0.079-108.111
		c-0.007-8.53-6.924-15.439-15.453-15.439c-8.534,0-15.453,6.918-15.453,15.453c0,15.6,0,92.542,0,108.099
		c-10.292,0-42.672,0-54.064,0l25.435-74.286c2.704-7.893-1.407-16.816-9.614-19.626c-8.025-2.743-16.937,1.496-19.721,9.641
		l-32.403,94.805c-3.424,10.017,4.033,20.451,14.621,20.451h75.743l-0.003,25.743c0,4.099,1.65,8.029,4.547,10.927
		c9.789,9.789,26.442,2.66,26.442-10.967v-25.784h16.892c8.534,0,15.453-6.919,15.453-15.453S481.706,305.887,473.172,305.887z"/>
</g>
<g>
</g>
<g>
</g>
<g>
</g>
<g>
</g>
<g>
</g>
<g>
</g>
<g>
</g>
<g>
</g>
<g>
</g>
<g>
</g>
<g>
</g>
<g>
</g>
<g>
</g>
<g>
</g>
<g>
</g>
</svg>
