<?xml version="1.0" encoding="iso-8859-1"?>
<!-- Generator: Adobe Illustrator 19.0.0, SVG Export Plug-In . SVG Version: 6.00 Build 0)  -->
<svg version="1.1" id="Layer_1" xmlns="http://www.w3.org/2000/svg" xmlns:xlink="http://www.w3.org/1999/xlink" x="0px" y="0px"
	 viewBox="0 0 511.99 511.99" style="enable-background:new 0 0 511.99 511.99;" xml:space="preserve">
<rect x="11.995" y="4.671" style="fill:#A0D468;" width="490.99" height="497.99"/>
<polygon style="fill:#ED5564;" points="322.493,169.496 311.494,139.997 279.495,118.497 264.995,108.497 211.495,108.497 
	181.996,127.497 154.497,161.996 140.997,200.496 333.493,205.496 "/>
<polygon style="fill:#F5F7FA;" points="138.997,205.496 144.497,222.495 153.497,255.995 181.996,297.244 221.995,370.493 
	240.995,384.493 255.995,358.993 283.495,299.494 320.493,247.495 329.493,209.996 "/>
<polygon style="fill:#FFCE54;" points="11.999,4.671 11.999,60.998 121.997,13.999 "/>
<polygon style="fill:#5D9CEC;" points="168.668,492.991 381.665,501.319 470.663,453.319 500.335,440.319 502.99,343.993 "/>
<polygon style="fill:#FFCE54;" points="395.993,13.499 453.991,127.497 498.491,110.497 498.491,8.499 "/>
<path style="fill:#F5F7FA;" d="M261.995,201.387c0,15.796-12.797,28.608-28.593,28.608c-15.797,0-28.609-12.812-28.609-28.609
	s12.812-28.609,28.609-28.609C249.198,172.778,261.995,185.59,261.995,201.387z"/>
<path d="M501.319,0H381.571h-370.9C4.78,0,0,4.781,0,10.656v490.679c0,5.874,4.781,10.655,10.671,10.655h97.42h262.746h130.482
	c5.89,0,10.671-4.781,10.671-10.655v-52.438V330.524V121.872V10.656C511.99,4.781,507.209,0,501.319,0z M490.663,21.343v86.686
	l-31.203,13.953L424.054,42.78l-9.577-21.437C414.477,21.343,490.663,21.343,490.663,21.343z M87.654,21.343L21.328,50.968V21.343
	H87.654z M207.621,490.647l283.042-127.154v71.592L366.29,490.647L207.621,490.647L207.621,490.647z M490.663,490.647H418.57
	l72.093-32.203L490.663,490.647L490.663,490.647z M490.663,340.102L155.559,490.647H21.328V74.342l118.607-52.999h251.168
	l13.483,30.14l44.093,98.67l41.984-18.75V340.102z"/>
<path d="M234.667,95.998c-28.468,0-55.39,11.375-75.796,32.015c-20.203,20.437-31.343,47.108-31.343,75.108
	c0,30.781,14.859,52.983,33.671,81.093c15.469,23.155,34.734,51.951,51.046,94.467c2.203,6,9.344,15.969,22.422,15.969
	c12.968,0,20.156-9.453,22.343-15.047l0.047-0.109c16.375-43.047,35.702-72.077,51.249-95.404
	c18.702-28.094,33.483-50.281,33.483-80.968c0-28-11.125-54.671-31.343-75.108C290.042,107.372,263.12,95.998,234.667,95.998z
	 M234.667,117.341c42.734,0,79.374,33.187,85.029,74.655h-43.857c-4.906-18.14-21.5-31.531-41.171-31.531
	c-19.672,0-36.281,13.391-41.187,31.531h-43.858C155.278,150.528,191.918,117.341,234.667,117.341z M255.995,203.121
	c0,11.781-9.562,21.343-21.328,21.343s-21.344-9.562-21.344-21.343c0-11.75,9.578-21.312,21.344-21.312
	C246.433,181.809,255.995,191.371,255.995,203.121z M290.542,272.276c-16.109,24.187-36.172,54.311-53.39,99.529
	c-0.047,0.125-0.766,1.531-2.484,1.531c-1.453,0-2.328-1.875-2.469-2.203l0,0c-17.172-44.797-37.187-74.733-53.265-98.764
	c-14.938-22.344-26.328-39.375-29.296-59.031h43.593c4.594,18.609,21.421,32.468,41.437,32.468c20,0,36.843-13.859,41.421-32.468
	h43.592C316.728,232.933,305.4,249.964,290.542,272.276z"/>
<g>
</g>
<g>
</g>
<g>
</g>
<g>
</g>
<g>
</g>
<g>
</g>
<g>
</g>
<g>
</g>
<g>
</g>
<g>
</g>
<g>
</g>
<g>
</g>
<g>
</g>
<g>
</g>
<g>
</g>
</svg>
