<svg xmlns="http://www.w3.org/2000/svg" width="53.904" height="53.276" viewBox="0 0 53.904 53.276"><defs><style>.a{fill:#868686;}</style></defs><path class="a" d="M96.99,27.361V28.8a2.691,2.691,0,0,1-.5.79,2.348,2.348,0,0,0-.889,2.4,2.889,2.889,0,0,1-.593,1.878c-.936,1.192-2.033,2.258-3.053,3.385a2.157,2.157,0,0,0-.542.775c-.215.781-.737.856-1.441.936a2.112,2.112,0,0,0-1.511.806c-.679,1.451-2.271,1.914-3.125,3.14a.9.9,0,0,1-.631.3c-.825.037-1.021.543-1.161,1.25a3.626,3.626,0,0,1-3.458,3.1,1.858,1.858,0,0,0-1.3.749,2.476,2.476,0,0,1-2.872,1.435,3.131,3.131,0,0,0-2.617.508c-1.024.767-5.575.009-6.6-.829a4.745,4.745,0,0,0-.916-.482,10.261,10.261,0,0,1-2.149-1.1,6.162,6.162,0,0,0-3.677-1.819,9.8,9.8,0,0,1-1.593-.444,4.546,4.546,0,0,0-1.5-.247,3.96,3.96,0,0,1-3.721-1.127,3.724,3.724,0,0,0-1.726-.94,2.938,2.938,0,0,1-2.55-2.627c-.029-.27-.108-.7-.272-.762-1.9-.683-2.338-2.152-2.479-3.986a28.982,28.982,0,0,0-.951-4,.912.912,0,0,1,.235-.767c1.211-.905.453-1.424-.467-2,0-1.44.02-2.922-.025-4.4-.006-.2-.33-.406-.533-.577a3.138,3.138,0,0,1-.908-3.986,3.482,3.482,0,0,0,.321-2.925,2.364,2.364,0,0,1,.945-2.528,2.116,2.116,0,0,0,.749-1.333c-.013-1.542,1.275-2.29,2.082-3.135.952-1,2.218-1.581,1.708-2.934q1.452.048,2.918.1a1.253,1.253,0,0,0,1.389-1.029,3.241,3.241,0,0,1,.943-1.6,5.087,5.087,0,0,0,2.209-2.7c.127-.445.752-.783,1.2-1.1A10.725,10.725,0,0,0,60.3-.618c1.129-1.421,2.491-1.3,3.89-.878a1.3,1.3,0,0,0,1.66-.45c.689-.956,1.45-.857,2.5-.536a24.571,24.571,0,0,0,4.168.537A6,6,0,0,1,74.3-.691,3.738,3.738,0,0,0,78.106.962a4.111,4.111,0,0,1,.7.12c.851.054,1.706.134,2.557.118,1.349-.028,2.7-.037,3.548,1.232a1.94,1.94,0,0,0,2.028.913A2.352,2.352,0,0,1,89.536,4.87c.345.867.5,1.688,1.689,1.758.258.015.526.654.705,1.044.345.746.65,1.513.932,2.285a9.383,9.383,0,0,1,.406,1.5c.1.559.133,1.13.2,1.7.077.661.175,1.322.235,1.984.054.606-.162,1.414.152,1.78a4.327,4.327,0,0,1,.8,2.8,2.194,2.194,0,0,0,.562,1.463c1.47,1.1,1.624,2.509,1.395,4.169A6.476,6.476,0,0,0,96.99,27.361Zm-24.4-3.129c.31.857.577,1.627.863,2.387.228.606.5,1.193.705,1.806.133.4.158.84.253,1.256.225.98,1,2.021-.359,2.815-.105.061-.12.377-.088.558a3.652,3.652,0,0,1-1.23,3.766,1.524,1.524,0,0,0-.361.859,4.1,4.1,0,0,1-2.2,2.828,2.22,2.22,0,0,0-.905,1.243c-.523,1.987-1.687,2.84-3.7,2.589a4.444,4.444,0,0,0-.735.031l-.095.352a14.78,14.78,0,0,0,2.525.939,9.027,9.027,0,0,0,3.245.153c1.668-.317,3.5-.279,4.864-1.6.133-.129.508.022.694-.088a8.4,8.4,0,0,0,1.231-.91c.659-.574,1.3-1.167,1.92-1.783.3-.3.774-.691.756-1.018a4.523,4.523,0,0,1,1.273-3.373c.212-.239.123-.759.139-1.151.032-.878.045-1.757.064-2.634.007-.359.156-.826-.013-1.06-1.069-1.47-1.154-3.411-2.519-4.8-.705-.717-1.982-1.784-3.167-1.535C75.531,24.055,74.04,24.411,72.59,24.231ZM83.436,17.9c-1.568-.409-3.017-.856-4.576-.172-1.286.564-2.709.8-4.022,1.317A5.783,5.783,0,0,0,73,20.3c-.476.461-.2.93.409,1a18.778,18.778,0,0,1,2.2.085,41.433,41.433,0,0,1,4.153,1.323c.221.08.272.555.479.774a2.046,2.046,0,0,0,.917.7c1.533.285,1.968.66,2.1,2.25a1.222,1.222,0,0,0,.84,1.247c1.557.644,1.894,1.4,1.708,3.109a1.2,1.2,0,0,0,.391.965,2.31,2.31,0,0,1,1,3,.891.891,0,0,0,.188.815,1.09,1.09,0,0,0,.951-.012,3.658,3.658,0,0,0,.79-.986,14.582,14.582,0,0,0,1.1-1.641c.6-1.164,1.9-2.065,1.148-3.743-.257-.575.127-1.434.207-2.163.032-.295.164-.759.031-.863-.989-.768-.8-1.825-.844-2.85-.013-.318-.2-.883-.352-.9-1.581-.178-2.158-1.532-3.049-2.5a3.1,3.1,0,0,0-3.811-.707ZM67.1,24.512l-.241-.361a16.33,16.33,0,0,1-1.891-.01c-2.03-.239-4.2-.149-5.512-2.222-.139-.218-.628-.256-.964-.3a2.037,2.037,0,0,1-2.071-1.773,2.259,2.259,0,0,0-.989-1.324,2.644,2.644,0,0,1-1.409-3.007c.08-.435.092-1.105-.165-1.341a3.134,3.134,0,0,1-.951-2.935.746.746,0,0,0-.353-.632.791.791,0,0,0-.708.256c-.682,1.092-1.305,2.221-1.954,3.337a4.622,4.622,0,0,0-.6,1.015,18.309,18.309,0,0,0-.714,3.548c-.019.372.812.79,1.256,1.189a2.336,2.336,0,0,0,.457,3.67,8.621,8.621,0,0,1,1.281,1.765c.256.35.476.821.831.989,1.714.813,3.081,2.461,5.242,2.24.175-.018.364.164.555.2a1.227,1.227,0,0,0,.694.035c1.146-.568,2.687.063,3.614-1.2.093-.127.488.006.688-.093a20.15,20.15,0,0,0,2.776-1.506A6.072,6.072,0,0,0,67.1,24.512Zm2.935,1.657c-.482,1.355-2.332,1.484-2.5,3.036-.032.3-.645.529-.981.8-.235.19-.549.358-.663.61a2.314,2.314,0,0,1-2.112,1.314c-.456.053-1.07.108-1.31.406-.875,1.081-1.965.838-3.081.746a3.912,3.912,0,0,0-1.18.188c-.622.149-1.279.559-1.847.454-1.744-.32-3.21-1.825-5.2-1.2-.229.073-.542-.155-.8-.127-.2.02-.552.275-.534.34.25.9-.422,1.974.569,2.757a13.464,13.464,0,0,1,1.145,1.367,3.839,3.839,0,0,0,1,.759c.787.4,1.944.532,2.339,1.158.8,1.269,2.128.821,3.106,1.649l.343-1.8c.4.551.7,1.345,1.063,1.376,1.089.091,2.6.307,3.23-.286,1.475-1.384,4.425-.751,4.79-3.531.012-.092.149-.206.251-.242,1.094-.383,1.473-1.27,1.9-2.268.364-.841.936-1.524.5-2.509a.919.919,0,0,1,.171-.676C71.139,29.022,70.1,27.644,70.036,26.169Zm19.824-12.19c-.352-1.307-.641-2.385-.939-3.461-.018-.061-.123-.095-.178-.152-.584-.606-1.143-1.24-1.762-1.808a1.457,1.457,0,0,0-.911-.393,1.79,1.79,0,0,1-1.817-1.1c-.1-.2-.32-.543-.418-.521a7.607,7.607,0,0,1-4.349-.64c-.809-.288-2.025.562-3.053.916-1.072.369-2.155.713-3.194,1.161a2.506,2.506,0,0,0-.943.927c-.19.283-.127.889-.339.983-1.494.654-1.9,2.008-2.339,3.366a10.452,10.452,0,0,0-.413,1.085,6.659,6.659,0,0,0-.079,1.313c0,1.047-.01,2.1.058,3.141.016.219.362.415.444.5,1.481-1.526,2.85-2.942,4.226-4.353a1.372,1.372,0,0,1,.464-.369c1.462-.511,2.923-1.021,4.4-1.479a4.886,4.886,0,0,1,1.059.022,4.4,4.4,0,0,0,1.235-.18c1.365-.508,2.665-.822,3.918.32a2.26,2.26,0,0,0,1.218.272c.643.06,1.3.026,1.936.095C88.618,13.681,89.139,13.83,89.861,13.979ZM68.792,1.262c-1.545.337-3.122-.3-3.881,1.425-.1.222-.657.215-.97.375a8.854,8.854,0,0,0-1.806,1.054,5.719,5.719,0,0,0-1.58,1.892,16.424,16.424,0,0,0-1.088,3.87c-.137.9.3,1.831-.7,2.58a1.315,1.315,0,0,0-.082,2.021,6.688,6.688,0,0,1,.651.977c.721,1.243,1.424,2.5,2.149,3.734.07.121.25.188.39.261,1.346.7,2.685,1.424,4.052,2.084.251.121.621,0,.936-.012a2.471,2.471,0,0,0-.134-.94c-.372-.609-.872-1.138-1.259-1.738-.2-.312-.479-.809-.362-1.047a2.778,2.778,0,0,0-.02-2.4c-.131-.34.105-.826.184-1.244s.342-.9.232-1.256c-.346-1.126.222-1.885.793-2.722a2.749,2.749,0,0,0,.431-1.431,2.584,2.584,0,0,1,1.292-2.526A3.132,3.132,0,0,0,70.044,4,16.5,16.5,0,0,1,70.9,1.771Z" transform="translate(-43.086 2.707)"/></svg>