<?xml version="1.0" encoding="UTF-8" standalone="no"?>
<!-- Created with Inkscape (http://www.inkscape.org/) -->

<svg
   version="1.1"
   id="svg408"
   xml:space="preserve"
   width="682.66669"
   height="682.66669"
   viewBox="0 0 682.66669 682.66669"
   xmlns="http://www.w3.org/2000/svg"
   xmlns:svg="http://www.w3.org/2000/svg"><defs
     id="defs412"><clipPath
       clipPathUnits="userSpaceOnUse"
       id="clipPath422"><path
         d="M 0,512 H 512 V 0 H 0 Z"
         id="path420" /></clipPath></defs><g
     id="g414"
     transform="matrix(1.3333333,0,0,-1.3333333,0,682.66667)"><g
       id="g416"><g
         id="g418"
         clip-path="url(#clipPath422)"><g
           id="g424"
           transform="translate(210.9961,115.8506)"><path
             d="m 0,0 h -135.392 l -44.087,-36.46 c -8.991,-7.436 -21.527,-1.878 -21.518,9.28 0,109.107 -10e-4,218.214 -10e-4,327.321 0,11.005 9,20.009 20,20.009 h 452.002 c 11,0 20,-9.004 20,-20.009 V 20.009 c 0,-11.005 -9,-20.009 -20,-20.009 L 90,0"
             style="fill:none;stroke:#000000;stroke-width:20;stroke-linecap:round;stroke-linejoin:round;stroke-miterlimit:22.926;stroke-dasharray:none;stroke-opacity:1"
             id="path426" /></g><g
           id="g428"
           transform="translate(149.9697,355.9258)"><path
             d="m 0,0 h 60.562 c 11.102,0 20.186,-9.084 20.186,-20.187 v -60.561 c 0,-23.688 0.17,-59.767 -28.415,-76.271 -16.942,-9.781 -31.011,6.42 -22.639,20.919 8.204,14.211 8.41,27.343 0.587,35.165 H 0 c -11.103,0 -20.187,9.084 -20.187,20.187 v 60.561 C -20.187,-9.084 -11.103,0 0,0 Z"
             style="fill:none;stroke:#000000;stroke-width:20;stroke-linecap:round;stroke-linejoin:round;stroke-miterlimit:22.926;stroke-dasharray:none;stroke-opacity:1"
             id="path430" /></g><g
           id="g432"
           transform="translate(301.4668,355.9258)"><path
             d="m 0,0 h 60.562 c 11.102,0 20.186,-9.084 20.186,-20.187 v -60.561 c 0,-23.688 0.17,-59.767 -28.416,-76.271 -16.941,-9.781 -31.01,6.42 -22.638,20.919 8.204,14.211 8.41,27.343 0.586,35.165 H 0 c -11.103,0 -20.187,9.084 -20.187,20.187 v 60.561 C -20.187,-9.084 -11.103,0 0,0 Z"
             style="fill:none;stroke:#000000;stroke-width:20;stroke-linecap:round;stroke-linejoin:round;stroke-miterlimit:22.926;stroke-dasharray:none;stroke-opacity:1"
             id="path434" /></g><g
           id="g436"
           transform="translate(255.9922,115.8506)"><path
             d="M 0,0 H 0.007"
             style="fill:none;stroke:#000000;stroke-width:20;stroke-linecap:round;stroke-linejoin:round;stroke-miterlimit:2.613;stroke-dasharray:none;stroke-opacity:1"
             id="path438" /></g></g></g></g></svg>
